<?xml version="1.0" encoding="utf-8"?>
<!-- Generator: Adobe Illustrator 16.0.0, SVG Export Plug-In . SVG Version: 6.00 Build 0)  -->
<!DOCTYPE svg PUBLIC "-//W3C//DTD SVG 1.0//EN" "http://www.w3.org/TR/2001/REC-SVG-20010904/DTD/svg10.dtd">
<svg version="1.0" id="Layer_1" xmlns="http://www.w3.org/2000/svg" xmlns:xlink="http://www.w3.org/1999/xlink" x="0px" y="0px"
	 width="100px" height="100px" viewBox="0 0 100 100" enable-background="new 0 0 100 100" xml:space="preserve">
<path fill="#263238" d="M43.333,10H10l46.667,80H90L43.333,10z M21.606,16.667h17.897l38.89,66.666H60.495L21.606,16.667z"/>
<polygon fill="#8BC34A" points="50,65.342 58.948,50 62.805,56.614 53.857,71.956 "/>
<polygon fill="#8BC34A" points="41.051,50 50,34.662 46.141,28.047 37.192,43.385 "/>
<polygon fill="#8BC34A" points="66.667,50 90,10 56.667,10 50,21.429 53.857,28.043 60.495,16.667 78.391,16.667 62.807,43.385 "/>
<polygon fill="#8BC34A" points="50,78.57 43.333,90 10,90 33.333,50 37.192,56.614 21.606,83.333 39.503,83.333 46.141,71.956 "/>
</svg>
